<?xml version="1.0" encoding="utf-8"?>
<!-- Generator: Adobe Illustrator 27.5.0, SVG Export Plug-In . SVG Version: 6.00 Build 0)  -->
<svg version="1.1" id="Layer_1" xmlns:svg="http://www.w3.org/2000/svg"
	 xmlns="http://www.w3.org/2000/svg" xmlns:xlink="http://www.w3.org/1999/xlink" x="0px" y="0px" viewBox="0 0 924.4 472.7"
	 style="enable-background:new 0 0 924.4 472.7;" xml:space="preserve">
<style type="text/css">
	.st0{fill-rule:evenodd;clip-rule:evenodd;fill:url(#SVGID_1_);}
	.st1{fill-rule:evenodd;clip-rule:evenodd;fill:url(#SVGID_00000047749257821818363980000011537069235552112529_);}
	.st2{fill-rule:evenodd;clip-rule:evenodd;fill:url(#SVGID_00000124120058930007024490000013053424078427135150_);}
	.st3{fill-rule:evenodd;clip-rule:evenodd;fill:url(#SVGID_00000024003312648884154860000016599008467637272985_);}
	.st4{fill-rule:evenodd;clip-rule:evenodd;fill:url(#SVGID_00000086686557734290322720000012505331376300882599_);}
	.st5{fill-rule:evenodd;clip-rule:evenodd;fill:url(#SVGID_00000079481484446878959440000018228497324314482072_);}
	.st6{fill-rule:evenodd;clip-rule:evenodd;fill:url(#SVGID_00000048482527222040193590000004274284274771001219_);}
</style>
<linearGradient id="SVGID_1_" gradientUnits="userSpaceOnUse" x1="461.75" y1="2" x2="461.75" y2="438.0183">
	<stop  offset="0" style="stop-color:#15FFFB"/>
	<stop  offset="0.3386" style="stop-color:#0017FD"/>
	<stop  offset="0.4306" style="stop-color:#1315FD"/>
	<stop  offset="0.6178" style="stop-color:#450EFE"/>
	<stop  offset="0.881" style="stop-color:#9505FF"/>
	<stop  offset="1" style="stop-color:#BB00FF"/>
</linearGradient>
<path class="st0" d="M515.4,281.7c-4.7-3.8-9.1-7.9-11.2-13.7c-4.6-12.4-3.8-27.6-3.8-41.7c0-30.7,0.4-62.1-0.1-92.7
	c-10.8,0.2-18.7-1.7-27.3-5.3c2.3-2.4,22.5-14.1,27.3-15.9c0-9.8-0.3-20,0.3-29.7c0.8-15.5,2.5-16.6,9.9-20.2
	c-2.9-1.1-6.9-2.3-10.2-4c-9.6-4.8-16.8-9.6-23.3-17.9c-8.3-10.7-14.9-27.8-15.3-40.6c-0.6,9.7-4.8,22.7-8.6,29.9
	c-8.2,15.7-22.1,26.5-41.3,32.7c4.4,1.9,7.4,2.7,8.9,7.4c1.3,4,1.5,10.3,1.7,14.8c0.5,10.7,0.2,22.3,0.2,33.1
	c0,22.1-0.1,44.2-0.1,66.3c0,21.4,0.8,44.7-0.6,65.8c-0.6,10.2-2.5,18.7-7.8,25.2c-2.2,2.7-4.2,4.9-6.7,6.8
	c-4.1,3.2-8.7,5.8-11.8,10.6c3.8-3.4,8.5-6.7,16.5-5.7l0,0c5.4,0.6,9.6,4.8,11.9,7.7c13.3,16.7,7.8,43.5-1.7,61.3
	c-7,13.1-9.9,15.2-16.7,23.9c14.3-13.6,22.9-25.1,30.4-40.7c10.1-20.3,11.2-35.3,11.5-57.7c0.3-23.3,0.2-46.6,0.2-69.9
	c0-22.1,0.3-46.6,1.1-68.6c5.2,3,3.9,3.3,11.6,6.9c4.6,2.1,9.4,2.8,14.1,4.7c1,13.2,0.4,51.7,0.2,66.9c-0.2,22.4,0.1,44.8,0.3,67.2
	c0.1,20.4,5,38.1,13.4,53.6c9.3,17.2,12.8,21,24.9,33.8c1,1,3.6,3.4,4.7,4.3c-1.3-1.8-3.3-4.1-4.8-5.9
	c-11.4-13.7-19.5-30.1-21.7-48.6c-1.7-14.6,1.4-22.6,8.1-31.5c2.4-3.2,6.6-7.1,12.9-7.3c4.6-0.1,8.1,0.6,11.6,3.1
	c2.3,1.6,1.6,1,3.8,2.6C523.7,287.1,519.6,285.1,515.4,281.7z M448.3,118.5l-0.4-48.9c7.1-3.5,9.6-6.4,13.3-12.5
	c5,6.6,7.3,9.6,14.7,13.5V99C465.3,105.8,453.6,114.3,448.3,118.5z"/>
<linearGradient id="SVGID_00000111899199357271970170000005642334051227790737_" gradientUnits="userSpaceOnUse" x1="654.5928" y1="2" x2="654.5928" y2="438.0183">
	<stop  offset="0" style="stop-color:#15FFFB"/>
	<stop  offset="0.3386" style="stop-color:#0017FD"/>
	<stop  offset="0.4306" style="stop-color:#1315FD"/>
	<stop  offset="0.6178" style="stop-color:#450EFE"/>
	<stop  offset="0.881" style="stop-color:#9505FF"/>
	<stop  offset="1" style="stop-color:#BB00FF"/>
</linearGradient>
<path style="fill-rule:evenodd;clip-rule:evenodd;fill:url(#SVGID_00000111899199357271970170000005642334051227790737_);" d="
	M687.6,120.1c-1.3-12.1-3.5-25.8-2.5-37.8c0.6-7.1,3.1-9.6,8-9.9c-4.4-1.7-24.4-4.1-36.7-21c-7.2-10.6-10.1-26.9,1.7-35.4
	c1.9-1.3,3.6-1.8,6.1-2.7c-8.4-0.6-14.5,6.5-17.3,11.1c-10.9,17.8-3.3,43.1-36.6,44.2c5.5,4.6,7.2,0.4,7.4,15.5
	c0.3,21.5-1.3,45.8-1.6,67.6c-0.2,15.1-1,30.1-1,45.2c0,15.3,0.4,30.4,0.7,45.7c0.6,29.6,1,59.9,2.7,89.3c1.3,21.4,5.9,36.4,14.2,55
	c1.8,4,7.4,13.5,9.3,15.6c-2.4-6.5-6.4-12-10-28.5c-4.6-21.2-6.8-45.9-0.2-66.6c5.9-18.4,11.3-15.2,22.7-15.5
	c-2.1-1.9-6.2-3-8.1-11.1c-2.3-10.1-4.2-40.9-5-51.9c-1.7-24.2-2.3-49.5-2.1-74l28-0.1c1.3,17.8,3,34.7,3.9,52.8
	c1,18.3,0.5,37.4-0.7,55.6l-10.9,0.2l6.3,5.9c6.6,5.9,12.7,13.4,17.5,21.4c7.9,13.2,3.7,28.8-0.8,42c7.8-8.7,12.6-32.2,14.6-49.8
	c2.9-25.4,1.7-55.6-0.9-81L687.6,120.1z M639.8,134.4c0.2-18.6,1.3-37.1,2.5-55.5c6.3-4.2,9.3-1.6,14.1,2.1c3.7,2.8,2.9,1,3.5,6.8
	c1.7,15.5,4.3,31,5.2,46.7L639.8,134.4z"/>
<linearGradient id="SVGID_00000165222358402663634380000003812417950311223484_" gradientUnits="userSpaceOnUse" x1="269.2" y1="2" x2="269.2" y2="438.0183">
	<stop  offset="0" style="stop-color:#15FFFB"/>
	<stop  offset="0.3386" style="stop-color:#0017FD"/>
	<stop  offset="0.4306" style="stop-color:#1315FD"/>
	<stop  offset="0.6178" style="stop-color:#450EFE"/>
	<stop  offset="0.881" style="stop-color:#9505FF"/>
	<stop  offset="1" style="stop-color:#BB00FF"/>
</linearGradient>
<path style="fill-rule:evenodd;clip-rule:evenodd;fill:url(#SVGID_00000165222358402663634380000003812417950311223484_);" d="
	M264.1,83.8c0.7-1.9,8.8-7,11.7-6.9c6.6,0.1,12.4,7.6,15.4,13c5.3,9.4,4.2,17.9,6.5,28.6c0.6-2.6,2.3-22.9,3.5-29.8
	c2-12.3,3.7-14.9,12.6-19.8c-4.2-0.1-7.5,0-12.4-1.7c-19.5-6.8-15.6-28.5-24.3-42.6c-1.3-2.1-3.5-4.9-5.9-7c-2.7-2.4-6.2-4.2-10.9-4
	c3.1,0.7,6.7,2.7,9.1,5.9c2.5,3.3,4.1,6.9,4.4,10.7c0.7,7.6-2.6,15.5-6.7,21.3c-7.1,10.2-18.5,15.6-30.4,19.3
	c-1.5,0.5-3.8,1.1-5.4,1.4c4.9,2,7.8,0.9,7.5,17c-0.2,11.2-5.2,51.8-6.5,64.9c-2.9,28.6-7.6,58.8-7.7,87.8c0,21.1,1.4,51.2,8.3,73.5
	c1.7,5.5,4.1,12.4,8.3,17.4c-0.7-2.1-2.5-6.8-3.2-9.6c-2.8-11.5-3.9-20.5,1.4-31.2l40.3-0.1c7.9,0,12.4,15.3,13.9,21.2
	c4.6,19,2.6,43.5-1.8,62.4c-1.9,8.1-3.3,12.5-6.4,19.6c-1,2.3-2.5,5.4-3.3,7.7l0,0c1.6-2.5,6.1-8.7,9.8-17.3c1.3-3,2.6-5.9,3.7-8.7
	c4.6-12.3,7.3-22.6,8.6-33.7c0.8-7.1,0.7-15,1.2-24.3c0.9-17,1.3-34.4,1.6-51.4c0.3-20.9,1.6-43.3,0.8-64c-2,7.7,0.1,17.3-8,36.7
	c-3.3,7.9-13.3,23.4-21.4,23.4h-25.6c-0.6-9.9-1-19.6-1-29.7c0-8.9,2.8-69.6,4.8-78.7c1.4-0.1,2-0.1,3.9-0.1c13.3,0,18.8-2,18.8,7.6
	c0,5.3-1.3,13.1-0.9,17.9c1.5-4,2.2-8.9,3.7-13.1c2.3-6.4,7.5-22.5,12.7-28.4c2.4-2.7,5.2-3.1,8.3-4.4h-44.8
	c1.3-14.4,3.9-32.3,5.4-47.3C263.9,85.2,263.9,84.3,264.1,83.8z"/>
<linearGradient id="SVGID_00000003089171023724580810000009483264087597563793_" gradientUnits="userSpaceOnUse" x1="560.9999" y1="2" x2="560.9999" y2="438.0183">
	<stop  offset="0" style="stop-color:#15FFFB"/>
	<stop  offset="0.3386" style="stop-color:#0017FD"/>
	<stop  offset="0.4306" style="stop-color:#1315FD"/>
	<stop  offset="0.6178" style="stop-color:#450EFE"/>
	<stop  offset="0.881" style="stop-color:#9505FF"/>
	<stop  offset="1" style="stop-color:#BB00FF"/>
</linearGradient>
<path style="fill-rule:evenodd;clip-rule:evenodd;fill:url(#SVGID_00000003089171023724580810000009483264087597563793_);" d="
	M561.1,37.4c-0.9-5-0.5-10.2,1.8-15.3c1.3-2.6,4.7-6.6,6.6-7.7c-5.3,1.2-9.8,6.6-12.3,13.6c-2.7,7.4-3.6,16.3-4,21.6
	c-5.6,4.7-11.4,9.5-17.7,13.3c-6.4,3.8-15.3,7.1-21.2,9.8l0,0c3.8,0.6,7.1-0.5,7.7,16.4c0.3,8.2-0.1,16-0.2,24.1
	c-0.2,16.3,0,32.6-0.2,48.8c-0.1,7.8-0.6,91.9,0.1,98.1c21.7,6.6,40,20.6,52,40.3c6.1,10.1,10.4,19.5,13.4,32.8
	c3.5,15.7,5.8,25.3,3.6,44.3c2.4-6.1,3.8-20.7,4.3-36c0.6-17.8,0.1-36.8,0.1-44.6c0.2-27.3,1.4-57.8,1.1-85.1
	c-2.1,11.2-3.7,20.4-6.3,30.5c-2.5,9.6-5.1,17.4-12.5,20.6c-0.7,0-12.7-10-14.5-11.4l-10.4-7.1c-6.4-3.8-5.2-3.1-5.7-20.4
	c-0.3-11.6-0.9-22.9-0.7-34.5c0.2-11.2,0.3-23.1,0.5-34.4c3.9-0.1,8.1,0,12,0c4,0,8.4-0.7,10,2.5c2.2,4.6-0.3,17.2-0.1,22.9
	c1.5-3.9,2.6-9.4,4-13.6c1.5-4.3,3.1-8.5,4.7-12.6c3.2-8.1,6.9-18.4,15.9-19.6l-46.4-0.2c-0.1-11.6-0.1-34.8,0.2-47.6
	c1.5-2.6,5.1-6.4,8.7-8.4c8.9-5,20.7,9.4,25.3,19.2c5.7,12.3,6.2,21.4,8.4,29.8c1.8-13.8-2.6-37.5,6.2-51.1c3-4.6,5.7-5.3,12.2-7.2
	c-8.8-1.3-13.9-1.8-22.2-5.6C574.1,58.4,563.5,50,561.1,37.4z"/>
<linearGradient id="SVGID_00000183227837780734269230000016886784617776342965_" gradientUnits="userSpaceOnUse" x1="362.35" y1="2" x2="362.35" y2="438.0183">
	<stop  offset="0" style="stop-color:#15FFFB"/>
	<stop  offset="0.3386" style="stop-color:#0017FD"/>
	<stop  offset="0.4306" style="stop-color:#1315FD"/>
	<stop  offset="0.6178" style="stop-color:#450EFE"/>
	<stop  offset="0.881" style="stop-color:#9505FF"/>
	<stop  offset="1" style="stop-color:#BB00FF"/>
</linearGradient>
<path style="fill-rule:evenodd;clip-rule:evenodd;fill:url(#SVGID_00000183227837780734269230000016886784617776342965_);" d="
	M385.9,260.5c-7.1,0.1-11.8-0.7-15.2-4.9c-5.9-7.4-4-29-4-41.1c0-22.3-0.1-44.9,0.7-67.2c0.4-11.1,1-22,1.4-33.1
	c0.4-9.7,0.2-22.7,2.2-32.1c4.7,1.4,8.6,4.3,12.6,6.4c4.8,2.6,5.5,3.9,8.7,10.1c6.5,12.7,8,27.6,9.6,30.1c-0.1-9.9-2.1-45.2,2-53
	c1.7-3.3,4.3-2.4,5.7-3c-1.1-0.8-14.1-5.5-19.8-8.8c-3.1-1.8-16.1-10.5-19.2-14.3c-0.9-9.2-2-22.5-9.1-30.7c-1.8-2.1-4.6-3.8-7-4.5
	l0,0c1.7,1,3.6,3.2,4.8,4.9c7.5,10.4,3,25.5-5.6,33.6c-4.8,4.5-10,8.1-16.5,10.8c-8.3,3.5-12.7,3.8-22.1,5.3c3.9,5,3.5,3,2.5,11.4
	c-1.4,11.1-3.1,33.3-1.9,43.2c-0.1-1,3.7-11.1,4.5-12.8c5.5-11.6,12.7-24,26.9-27.2c-0.3,7.2-1.6,15-2.1,22.4
	c-1.8,24.4-2.4,47.6-3.3,72.1c-1.2,32.5-1.8,65.9-1.9,98.5c0,11.1-3.4,26.6-5.7,37.5c-4.3,20.7-5.5,51.5-0.3,64.8
	c-0.8-4.6-2-12.3-0.8-25.1c0.6-6.8,2.1-13.5,3.5-20.1c3.1-14.5,10-30,18.3-40.5c12.8-16.2,29.8-28.9,50.1-33.9
	C400.2,259,391.8,260.5,385.9,260.5z"/>
<linearGradient id="SVGID_00000148636503910012246000000014620815220313169066_" gradientUnits="userSpaceOnUse" x1="108.9585" y1="2" x2="108.9585" y2="438.0183">
	<stop  offset="0" style="stop-color:#15FFFB"/>
	<stop  offset="0.3386" style="stop-color:#0017FD"/>
	<stop  offset="0.4306" style="stop-color:#1315FD"/>
	<stop  offset="0.6178" style="stop-color:#450EFE"/>
	<stop  offset="0.881" style="stop-color:#9505FF"/>
	<stop  offset="1" style="stop-color:#BB00FF"/>
</linearGradient>
<path style="fill-rule:evenodd;clip-rule:evenodd;fill:url(#SVGID_00000148636503910012246000000014620815220313169066_);" d="
	M204.2,282.7c-4.2-21.3-0.2-44.8,1.9-66c1.5-15.3,2.7-30.6,4.1-46.1c1.4-15.4,2.9-30.8,4.4-46.1c2.5-26.8,6.6-57-1.3-83.3
	c-2-6.6-4.7-11.2-8.7-16c-2.8-3.3-5-5.2-9-7.7c2.2,1.8,4.2,4.1,5.9,6.6c2.4,3.6,4.1,7.8,5.3,12.1c3.6,12.2,3.4,26-2.2,37
	c-4.4,8.6-10.3,12.6-18.4,17c3.1,0.2,5-0.3,5.9,2.3c2.3,6.9-3.2,71.7-4.7,85.1c-2.8-13.7-9-37.7-12.5-59c-1.1-6.9-3.2-14,0.6-20.4
	c1.7-2.8,4.3-4.2,6.5-6.5c-3.2,0.7-6,1-8.4,0.6c-2.8-0.5-5.1-1.9-7-3.6c-8.5-7.3-8.9-23.8-4.1-34.6c2.9-6.4,7.6-11.1,10.2-14.1
	c-2.8,1.2-8,5.6-11.9,11.2c-9.7,14-6.7,27.8-9.6,40.6c-2.6,11.6-8,12.6-17.2,17.7c-14.7,8.1-28.2,18.2-40.4,29.4
	c-7.8,7.2-14.7,13.7-21.7,21.8c-10.3,11.9-21.9,27.2-24.8,36.6c3-4.6,6.6-9.2,9.9-13.6c5.4-6.4,12.5-13.8,18.8-19.3
	c5.1-4.5,11.4-9.5,16.2-12.9c9-6.4,18.1-12.3,28.3-17.3c9-4.4,21.7-9.5,32-12.2c0,3.2-8.9,55-9.8,61.2c-1.7,12-3.6,28.3-4.7,45.2
	c-1.6,22.9-1.4,47,6.5,63.4c0.7,1.5,2,3.2,2.8,4.5c-1-5.1-3.9-12.3-2.9-20.8c1.4-11.9,8.4-22.9,16.3-30.8c1.6-1.6,10.7-9.6,13-10.7
	c-8.8-0.6-11.6,0.8-11.8-9.3c-0.3-11.4,3.9-46.4,6.3-55.3c4.8,15.8,7.8,35.4,10.5,52.4c1.1,7.2,1.4,6.8,0.5,14.1
	c-1.3,10.5-2,21.2-2.3,31.8l0,0c0,0,0,0.2,0,0.5c-0.1,4-0.2,8.1-0.2,12.1c0,1.1,0,2.2,0,3.2l0,0c0,5.4-4.5,9.9-9.1,12.9
	c8.3,0.3,7.8,4.1,6,10.4c-4.7,15.3-12.1,30-21.2,42.4c-5.1,6.9-17.9,23.2-24.9,28.7c-2.5-9.6-1-35.5,0.8-44.5
	c2.3-10.5,3.2-14.9,8.1-23c-3.7,3.8-6.7,9.2-8.7,14.1c-14.9,35.6-4.4,62-34.8,92.9c-6.4,6.5-11.8,12-19.1,17.6
	C52.4,451.3,7.8,467.9,0,472.7c21.8-5.6,55.4-21.6,70.9-30c5.5-3,10.7-5.6,15.8-8.9c8.2-5.2,22.4-13.7,29.5-19.7
	c6.8-5.8,13.1-10.9,19.8-17.1c6.3-5.9,12.2-12.1,17.7-19.1c7.1-9.1,14.6-18.2,20.6-28.3c3-5.1,6.1-9.8,9.2-15.1
	c6.3-10.2,12.8-20.4,19.1-30.6c5-8,7.5-8.9,12.1-11.9C206.4,291.8,205.9,290.9,204.2,282.7z"/>
<linearGradient id="SVGID_00000105395403961726853570000007090284212335243434_" gradientUnits="userSpaceOnUse" x1="815.0998" y1="2" x2="815.0998" y2="438.0183">
	<stop  offset="0" style="stop-color:#15FFFB"/>
	<stop  offset="0.3386" style="stop-color:#0017FD"/>
	<stop  offset="0.4306" style="stop-color:#1315FD"/>
	<stop  offset="0.6178" style="stop-color:#450EFE"/>
	<stop  offset="0.881" style="stop-color:#9505FF"/>
	<stop  offset="1" style="stop-color:#BB00FF"/>
</linearGradient>
<path style="fill-rule:evenodd;clip-rule:evenodd;fill:url(#SVGID_00000105395403961726853570000007090284212335243434_);" d="
	M873.1,448.9c-19.5-9.9-32.4-20.6-46.3-36.5c-4.8-6.1-7.3-8-11.4-16.3c-5-10-6-16.9-8-28.8c-2.9-17.5-7.1-43.7-18.8-56.6
	c7.5,12.4,9.8,32.9,9.8,51.6c0,3.8-0.1,12.4-1.4,15.5c0,0-15.3-15.3-17.4-18.4c-4.6-6.7-9.9-12.1-15-20.9
	c-4.7-8.1-7.8-14.8-11.2-24.3c-0.9-2.6-1.7-4.9-2.4-6.8c-1.9-6.3-2.4-10.2,5.8-10.7c-4.6-2.9-9.2-7.4-9.3-12.8
	c0-5.4-0.4-15.8-0.4-15.8l0,0c-0.2-10.5-0.8-21.3-1.8-31.1c-0.7-6.9-1.3-13.4-2.1-20.1c-0.8-6.5-2-13.6-2.7-20.2
	c2.5-1.6,9.1-7.3,11.2-9.3c4.9-4,12.9-11.7,18.4-13.9c2.5-1,4.3-0.4,5.4,0.9c2.8,3,4,11.2,6.5,16.1c0.8-6.2-9.2-56.5-10.4-68.7
	c24.9,6.1,50.6,21.4,66.9,34.6c14.6,11.9,26.4,22,38.8,40.9c-3.7-11.5-18.3-29-25.5-37.1c-17.6-19.9-40.2-38.6-63.5-51.6
	c-9.4-5.3-13.9-6.1-15.9-18.9c-1.7-11.1-1-20.6-4.9-30.9c-2.5-6.7-10-16.6-16.2-18.8c2.7,1.9,8.5,9.8,10.3,14.4
	c4.5,11.9,4.7,30.4-8,36.6c-5.9,2.9-14.5-1.3-19.8-3.5c-5.7-2.4-9.7-6.8-12.9-11.9c-7-11.5-7.9-27.8-3.2-41.5
	c2.3-6.6,7.6-14,11.5-17c-2.9,1-4.8,3.2-7.3,5.4c-4.9,5-8.2,10.1-10.7,17.3c-3.3,9.6-5.3,22.6-5.4,33.5c0,18,1.3,33.2,3,50.7
	c1.5,15.6,2.9,31.1,4.4,46.7c2.3,24,8.3,72.6,8.3,93.8c0,6.2-0.5,12.1-1.7,18c-2.1,10.8-4.5,8.8-10.6,9.5c9.3,6,3.8,1,12.6,12.2
	c3,3.9,23.5,38.4,28,45.5c12,18.7,30.5,42.6,48,56.3c1.2,0.9,2.2,1.9,3.4,2.9c7.4,6.2,13.9,10.3,21.5,15.7
	c19.1,13.6,56.4,32.1,81.6,41.5c5.2,1.8,14.6,5.4,20.1,6.6C917.1,468.9,883.4,454.2,873.1,448.9z M731.2,112.8
	c3.4,0.2,17.8,3.4,18.9,6.8c1.6,4.8,4,33.2,4.2,38.2c-1.8,1.1-3.1,2.7-4.7,4.2c-2.4,2.1-12.6,11.4-13.4,11.5L731.2,112.8z"/>
</svg>
